<svg width="20" height="19" viewBox="0 0 20 19" fill="none" xmlns="http://www.w3.org/2000/svg">
<path fill-rule="evenodd" clip-rule="evenodd" d="M14.0979 1.44916e-05C12.795 0 11.9551 0.155217 10.9924 0.626465C10.6359 0.800937 10.3015 1.01105 9.99097 1.25618C9.69237 1.0248 9.37133 0.824326 9.02963 0.655321C8.04819 0.169898 7.16525 0 5.90909 0C2.54479 0 0.0999985 2.78754 0.0999985 6.40789C0.0999985 9.14198 1.62445 11.7831 4.46395 14.3369C5.9544 15.6774 7.85739 17.004 9.22024 17.7097L10 18.1135L10.7798 17.7097C12.1426 17.004 14.0456 15.6774 15.536 14.3369C18.3755 11.7831 19.9 9.14198 19.9 6.40789C19.9 2.82586 17.4322 0.0138225 14.0979 1.44916e-05ZM18.1 6.40793C18.1 8.54995 16.8276 10.7544 14.3324 12.9986C12.972 14.2221 11.2231 15.4449 10 16.0864C8.77698 15.4449 7.02808 14.2221 5.66769 12.9986C3.17248 10.7544 1.90004 8.54995 1.90004 6.40793C1.90004 3.73298 3.59532 1.80004 5.90913 1.80004C6.9079 1.80004 7.52336 1.91847 8.23166 2.2688C8.65005 2.47573 9.01983 2.74897 9.33992 3.09043L10.0021 3.79687L10.6583 3.08483C10.9856 2.72969 11.3609 2.45023 11.7838 2.24322C12.4713 1.90668 13.0483 1.80004 14.0942 1.80004C16.3794 1.80952 18.1 3.7701 18.1 6.40793Z" fill="black"/>
</svg>
